# xmcd
#
# Track frame offsets:
#	150
#	16829
#	37609
#	57236
#	68116
#	84891
#	103280
#	122063
#	136470
#	148596
#
# Disc length: 2241 seconds
#
# Revision: 1
# Processed by: cddbd v1.5.2PL0 Copyright (c) Steve Scherf et al.
# Submitted via: audiograbber 1.83.01
#
DISCID=7f08bf0a
DTITLE=Landscape Izuma - Kolorit
DYEAR=2007
DGENRE=
TTITLE0=The Lake Is The Ocean
TTITLE1=The Accent's On The Offbeat
TTITLE2=Places And Moments
TTITLE3=Palindrom
TTITLE4=11502Anywhere
TTITLE5=Absence Makes The Heart Grow Fonder
TTITLE6=Rough Sheets
TTITLE7=Firlefanz
TTITLE8=Buffer
TTITLE9=Hand
EXTD=
EXTT0=
EXTT1=
EXTT2=
EXTT3=
EXTT4=
EXTT5=
EXTT6=
EXTT7=
EXTT8=
EXTT9=
PLAYORDER=
